<svg width="250" height="99" viewBox="0 0 339 99" fill="none" xmlns="http://www.w3.org/2000/svg">
<path fill-rule="evenodd" clip-rule="evenodd" d="M27.8683 33.2883C21.827 35.9856 14.8353 40.8978 6.89438 48.7289C3.11171 44.7868 1.26933 41.1507 1.02763 37.8179C0.779881 34.4016 2.20722 31.1992 5.17121 28.1956C8.1427 25.1844 12.6337 22.402 18.4284 19.8615C24.2179 17.3234 31.2803 15.0389 39.3686 13.01C71.732 4.89189 120.341 0.907901 169.012 1.00162C217.682 1.09533 266.354 5.26657 298.844 13.4318C315.113 17.5205 327.223 22.5876 333.28 28.5693C336.293 31.5443 337.767 34.7029 337.571 38.0557C337.381 41.3219 335.601 44.8778 331.887 48.7246C323.948 40.6537 316.973 35.5381 310.959 32.6703C304.853 29.7588 299.712 29.1537 295.559 30.1595C287.219 32.1791 283.168 40.5789 283.2 48.8606C283.232 57.1439 287.346 65.6282 295.689 67.8453C299.848 68.9507 304.986 68.4703 311.074 65.7039C317.068 62.9802 324.004 58.032 331.882 50.1536C335.63 54.0957 337.443 57.73 337.659 61.06C337.881 64.4758 336.429 67.677 333.441 70.6781C327.432 76.7142 315.363 81.7805 299.126 85.8309C266.7 93.9195 218.06 97.8638 169.389 97.7415C120.718 97.6193 72.0772 93.4308 39.6501 85.2809C23.4121 81.1998 11.3416 76.1486 5.33129 70.1943C2.34253 67.2334 0.894484 64.0923 1.11574 60.7599C1.33145 57.5111 3.13985 53.9744 6.88675 50.1496C14.8899 58.2177 21.9198 63.3364 27.9809 66.2113C34.1331 69.1295 39.3116 69.7465 43.4949 68.7565C51.8963 66.7685 55.9818 58.4099 55.9501 50.1528C55.9183 41.894 51.7695 33.4302 43.3675 31.1984C39.1788 30.0858 34.0031 30.5492 27.8683 33.2883ZM338.57 38.1139C338.36 41.7151 336.404 45.4922 332.585 49.4418C336.437 53.4861 338.42 57.3376 338.657 60.9953C338.903 64.7758 337.277 68.2424 334.15 71.3837C327.929 77.6322 315.615 82.7484 299.368 86.8012C266.825 94.9189 218.09 98.8639 169.386 98.7415C120.682 98.6192 71.9479 94.4294 39.4063 86.2508C23.16 82.1676 10.8476 77.0669 4.6275 70.9047C1.50102 67.8073 -0.128085 64.399 0.117939 60.6936C0.355758 57.1118 2.33969 53.3582 6.18647 49.4354C2.30628 45.3957 0.295447 41.547 0.0302525 37.8902C-0.243967 34.109 1.35507 30.639 4.45943 27.4932C7.5563 24.355 12.1757 21.5109 18.0269 18.9457C23.8834 16.3781 31.0027 14.0776 39.1253 12.0401C71.6057 3.89261 120.309 -0.0921617 169.014 0.00161708C217.718 0.0953966 266.483 4.26791 299.088 12.462C315.366 16.553 327.716 21.6695 333.983 27.8578C337.132 30.9678 338.787 34.3907 338.57 38.1139ZM310.529 33.573C316.407 36.376 323.292 41.4116 331.185 49.4363C323.357 57.2671 316.514 62.1337 310.66 64.7935C304.723 67.4915 299.825 67.91 295.946 66.8789C288.21 64.8229 284.231 56.892 284.2 48.8568C284.169 40.82 288.087 32.998 295.794 31.1314C299.664 30.1942 304.566 30.7299 310.529 33.573ZM28.276 34.2014C22.3773 36.8351 15.4819 41.6643 7.5944 49.443C15.547 57.4606 22.485 62.4977 28.4095 65.3078C34.4194 68.1585 39.362 68.7069 43.2646 67.7834C51.0351 65.9446 54.9808 58.161 54.9501 50.1566C54.9193 42.1539 50.9118 34.237 43.1108 32.1649C39.1979 31.1256 34.2603 31.5295 28.276 34.2014ZM85.6335 54.2908C85.7637 53.9913 85.8288 53.6723 85.8288 53.3337C85.8288 52.9041 85.7442 52.5199 85.5749 52.1814C85.4057 51.8298 85.1192 51.5108 84.7156 51.2244C84.3119 50.9379 83.7781 50.6775 83.114 50.4431C82.4499 50.1957 81.6231 49.9744 80.6335 49.7791C79.4226 49.5317 78.3158 49.2322 77.3132 48.8806C76.3236 48.5291 75.4773 48.1059 74.7742 47.6111C74.058 47.1293 73.5046 46.5629 73.114 45.9119C72.7234 45.2478 72.5281 44.4796 72.5281 43.6072C72.5281 42.7478 72.7299 41.947 73.1335 41.2048C73.5372 40.4496 74.1036 39.7921 74.8328 39.2322C75.5619 38.6723 76.4278 38.2296 77.4304 37.9041C78.446 37.5785 79.5593 37.4158 80.7703 37.4158C82.0723 37.4158 83.2442 37.585 84.2859 37.9236C85.3275 38.2621 86.213 38.7309 86.9421 39.3298C87.6713 39.9288 88.2312 40.6319 88.6218 41.4392C89.0255 42.2335 89.2273 43.0929 89.2273 44.0173H85.614C85.614 43.5616 85.4968 43.1189 85.2624 42.6892C85.0281 42.2465 84.7025 41.8559 84.2859 41.5173C83.8692 41.1788 83.3614 40.9054 82.7624 40.697C82.1765 40.4887 81.5124 40.3845 80.7703 40.3845C80.002 40.3845 79.3249 40.4692 78.739 40.6384C78.1661 40.8077 77.6908 41.0356 77.3132 41.322C76.9226 41.6085 76.6296 41.9405 76.4343 42.3181C76.239 42.6957 76.1413 43.0864 76.1413 43.49C76.1413 43.9067 76.2195 44.2778 76.3757 44.6033C76.532 44.9288 76.8054 45.2218 77.196 45.4822C77.5736 45.7426 78.0814 45.977 78.7195 46.1853C79.3705 46.3936 80.1908 46.5955 81.1804 46.7908C82.4825 47.0642 83.6479 47.3832 84.6765 47.7478C85.7052 48.0994 86.571 48.5225 87.2742 49.0173C87.9773 49.5252 88.5111 50.1111 88.8757 50.7752C89.2533 51.4392 89.4421 52.2074 89.4421 53.0798C89.4421 54.0173 89.2273 54.8702 88.7976 55.6384C88.3809 56.4067 87.795 57.0642 87.0398 57.6111C86.2846 58.158 85.3796 58.5811 84.3249 58.8806C83.2703 59.1801 82.1179 59.3298 80.8679 59.3298C79.4356 59.3298 78.1596 59.141 77.0398 58.7634C75.92 58.3728 74.976 57.8585 74.2078 57.2205C73.4265 56.5955 72.8275 55.8663 72.4109 55.033C72.0072 54.1996 71.8054 53.3337 71.8054 52.4353H75.4187C75.4708 53.1775 75.6661 53.8025 76.0046 54.3103C76.3562 54.8181 76.7924 55.2283 77.3132 55.5408C77.821 55.8533 78.3874 56.0746 79.0124 56.2048C79.6374 56.335 80.2559 56.4002 80.8679 56.4002C81.8314 56.4002 82.6713 56.2895 83.3874 56.0681C84.1036 55.8337 84.6635 55.5147 85.0671 55.1111C85.3145 54.8637 85.5033 54.5903 85.6335 54.2908ZM96.3757 40.9509V37.8064H107.177V55.8142H114.071V58.9392H96.3757V55.8142H103.563V40.9509H96.3757ZM103.622 33.7244C103.27 33.3337 103.094 32.8455 103.094 32.2595C103.094 31.947 103.14 31.6541 103.231 31.3806C103.335 31.1072 103.492 30.8728 103.7 30.6775C103.869 30.5082 104.084 30.378 104.344 30.2869C104.618 30.1827 104.924 30.1306 105.262 30.1306C105.601 30.1306 105.9 30.1827 106.161 30.2869C106.421 30.378 106.636 30.5082 106.805 30.6775C107.014 30.8598 107.17 31.0877 107.274 31.3611C107.378 31.6345 107.43 31.934 107.43 32.2595C107.43 32.8455 107.248 33.3337 106.884 33.7244C106.519 34.115 105.979 34.3103 105.262 34.3103C104.533 34.3103 103.986 34.115 103.622 33.7244ZM118.251 37.8064H121.493L121.591 39.7986C122.02 39.0564 122.58 38.477 123.27 38.0603C123.973 37.6436 124.82 37.4288 125.809 37.4158C126.369 37.4158 126.871 37.4809 127.313 37.6111C127.769 37.7283 128.166 37.9041 128.505 38.1384C128.752 38.3207 128.973 38.5421 129.169 38.8025C129.377 39.0629 129.553 39.3559 129.696 39.6814C129.878 39.3819 130.093 39.102 130.341 38.8416C130.588 38.5811 130.855 38.3533 131.141 38.158C131.506 37.9366 131.91 37.7608 132.352 37.6306C132.808 37.5004 133.303 37.4288 133.837 37.4158C134.566 37.4158 135.223 37.5265 135.809 37.7478C136.395 37.9561 136.89 38.2686 137.294 38.6853C137.736 39.1541 138.075 39.766 138.309 40.5212C138.544 41.2634 138.661 42.1423 138.661 43.158V58.9392H135.223V43.1189C135.223 42.6762 135.171 42.2856 135.067 41.947C134.963 41.6085 134.813 41.3285 134.618 41.1072C134.41 40.8989 134.149 40.7426 133.837 40.6384C133.537 40.5343 133.186 40.4822 132.782 40.4822C132.352 40.4822 131.981 40.5408 131.669 40.658C131.356 40.7752 131.096 40.9314 130.887 41.1267C130.679 41.335 130.516 41.5759 130.399 41.8494C130.282 42.1098 130.204 42.4028 130.165 42.7283V42.9236V43.1189V58.9392H126.727V43.0994C126.727 42.6567 126.675 42.266 126.571 41.9275C126.48 41.589 126.33 41.309 126.122 41.0877C125.927 40.8793 125.679 40.7296 125.38 40.6384C125.093 40.5343 124.755 40.4822 124.364 40.4822C123.934 40.4822 123.557 40.5343 123.231 40.6384C122.919 40.7296 122.652 40.8663 122.43 41.0486C122.261 41.1918 122.111 41.3546 121.981 41.5369C121.864 41.7192 121.766 41.9145 121.688 42.1228V58.9392H118.251V37.8064ZM147.45 67.0642H143.837V37.8064H147.137L147.313 40.1111C147.6 39.7465 147.912 39.421 148.251 39.1345C148.589 38.835 148.954 38.5811 149.344 38.3728C149.891 38.0603 150.497 37.8259 151.161 37.6697C151.838 37.5004 152.561 37.4158 153.329 37.4158C154.683 37.4158 155.881 37.6827 156.923 38.2166C157.964 38.7504 158.837 39.4926 159.54 40.4431C160.243 41.3936 160.777 42.533 161.141 43.8611C161.506 45.1762 161.688 46.6215 161.688 48.197V48.6072C161.688 50.1176 161.506 51.5304 161.141 52.8455C160.777 54.1475 160.243 55.2804 159.54 56.2439C158.837 57.2074 157.964 57.9627 156.923 58.5095C155.894 59.0564 154.716 59.3298 153.387 59.3298C152.58 59.3298 151.825 59.2452 151.122 59.0759C150.432 58.9067 149.807 58.6658 149.247 58.3533C148.908 58.158 148.589 57.9431 148.29 57.7087C147.99 57.4614 147.71 57.1944 147.45 56.908V67.0642ZM158.075 48.6072V48.197C158.075 47.1684 157.958 46.1918 157.723 45.2673C157.502 44.3298 157.157 43.503 156.688 42.7869C156.206 42.0837 155.601 41.5239 154.872 41.1072C154.143 40.6905 153.27 40.4822 152.255 40.4822C151.695 40.4822 151.174 40.5473 150.692 40.6775C150.223 40.8077 149.8 40.9965 149.423 41.2439C149.006 41.4913 148.635 41.7973 148.309 42.1619C147.984 42.5265 147.697 42.9301 147.45 43.3728V53.5486C147.671 53.9392 147.925 54.3038 148.212 54.6423C148.498 54.9809 148.824 55.2673 149.188 55.5017C149.605 55.7752 150.067 55.99 150.575 56.1462C151.096 56.3025 151.669 56.3806 152.294 56.3806C153.296 56.3806 154.162 56.1723 154.891 55.7556C155.621 55.3259 156.219 54.753 156.688 54.0369C157.157 53.3207 157.502 52.4939 157.723 51.5564C157.958 50.6189 158.075 49.6358 158.075 48.6072ZM168.446 32.0837V28.9392H179.247V55.8142H186.141V58.9392H168.446V55.8142H175.634V32.0837H168.446ZM192.469 40.9509V37.8064H203.27V55.8142H210.165V58.9392H192.469V55.8142H199.657V40.9509H192.469ZM199.716 33.7244C199.364 33.3337 199.188 32.8455 199.188 32.2595C199.188 31.947 199.234 31.6541 199.325 31.3806C199.429 31.1072 199.585 30.8728 199.794 30.6775C199.963 30.5082 200.178 30.378 200.438 30.2869C200.712 30.1827 201.018 30.1306 201.356 30.1306C201.695 30.1306 201.994 30.1827 202.255 30.2869C202.515 30.378 202.73 30.5082 202.899 30.6775C203.107 30.8598 203.264 31.0877 203.368 31.3611C203.472 31.6345 203.524 31.934 203.524 32.2595C203.524 32.8455 203.342 33.3337 202.977 33.7244C202.613 34.115 202.072 34.3103 201.356 34.3103C200.627 34.3103 200.08 34.115 199.716 33.7244ZM224.95 58.9392H221.317V40.5994H215.497V37.8064H221.317V36.322C221.317 34.9679 221.512 33.783 221.903 32.7673C222.307 31.7387 222.873 30.8793 223.602 30.1892C224.318 29.4991 225.184 28.9783 226.2 28.6267C227.216 28.2752 228.348 28.0994 229.598 28.0994C230.119 28.0994 230.634 28.1319 231.141 28.197C231.649 28.2491 232.15 28.3207 232.645 28.4119C232.971 28.477 233.296 28.5486 233.622 28.6267C233.947 28.6918 234.279 28.7699 234.618 28.8611L234.188 31.8494C233.654 31.6671 233.029 31.5108 232.313 31.3806C231.61 31.2374 230.855 31.1658 230.048 31.1658C229.227 31.1658 228.498 31.2699 227.86 31.4783C227.235 31.6736 226.714 31.9731 226.298 32.3767C225.855 32.7934 225.516 33.3337 225.282 33.9978C225.061 34.6619 224.95 35.4366 224.95 36.322V37.8064H233.094V40.5994H224.95V58.9392ZM244.169 66.947C243.44 67.2986 242.6 67.4744 241.649 67.4744C241.311 67.4744 240.913 67.4353 240.458 67.3572C240.002 67.2791 239.657 67.214 239.423 67.1619L240.009 64.2127C240.334 64.2387 240.653 64.2582 240.966 64.2712C241.291 64.2973 241.545 64.3103 241.727 64.3103C242.222 64.3103 242.671 64.1736 243.075 63.9002C243.492 63.6267 243.863 63.3012 244.188 62.9236C244.501 62.546 244.768 62.1554 244.989 61.7517C245.223 61.3481 245.406 61.016 245.536 60.7556L246.981 57.9431L237.88 37.8064H241.923L247.723 51.4392L248.661 53.9978L249.657 51.5173L255.106 37.8064H259.149L248.427 62.2009C248.179 62.7478 247.86 63.3272 247.469 63.9392C247.092 64.5512 246.63 65.1176 246.083 65.6384C245.536 66.1593 244.898 66.5955 244.169 66.947Z" fill="#2C90BC"/>
</svg>
